<svg id="Layer_1" data-name="Layer 1" xmlns="http://www.w3.org/2000/svg" viewBox="0 0 502.69 171.49">
  <defs>
    <style>
      .cls-1 {
        fill: #61bf7d;
      }

      .cls-2 {
        fill: #557dbf;
      }

      .cls-3 {
        fill: #083042;
      }

      .cls-4 {
        fill: #45b86f;
      }

      .cls-5 {
        fill: #3a71b2;
      }

      .cls-6 {
        fill: #09181a;
      }

      .cls-7 {
        font-size: 119.42px;
        fill: #231f20;
        font-family: MyriadPro-Regular, Myriad Pro;
      }

      .cls-8 {
        letter-spacing: -0.01em;
      }

      .cls-9 {
        letter-spacing: 0em;
      }
    </style>
  </defs>
  <g>
    <g>
      <path class="cls-1" d="M6.61,214.4A13,13,0,0,1,10,209.74a23,23,0,0,1,4.2-2.85c2-1.07,4-2.22,6.06-3.3,1.45-.77,2.86-1.64,4.35-2.33,2.41-1.13,4.61-2.6,7-3.71,1.38-.63,2.63-1.53,4-2.2,1.68-.83,3.22-1.89,4.91-2.68s3.25-1.84,4.93-2.65,3.24-1.85,4.92-2.65c1.93-.92,3.69-2.13,5.6-3,1.7-.81,3.24-1.87,4.92-2.66s3.24-1.87,4.93-2.65c2.45-1.13,4.69-2.6,7.12-3.76,1.81-.86,3.5-2,5.29-2.84a19.09,19.09,0,0,1,3.52-1.34,33.57,33.57,0,0,1,4.66-.78,21.45,21.45,0,0,1,4.54.29c3.13.33,5.82,1.71,8.5,3.16.91.5,1.81,1,2.77,1.42a27.46,27.46,0,0,1,3.12,1.66c1.31.77,2.75,1.28,4.07,2,2.47,1.43,5.08,2.64,7.62,4,1.6.85,3.19,1.77,4.85,2.51,1.49.65,2.82,1.55,4.28,2.2,2.59,1.15,5,2.64,7.55,3.82,1,.47,1.94,1.18,3,1.63,1.2.53,2.35,1.12,3.51,1.72,3,1.54,6,3,8.91,4.62,2.63,1.43,5.31,2.78,8,4.13,2.13,1.07,4.14,2.35,6.35,3.28a7.51,7.51,0,0,1,1.93,1.34c1.25,1.14,2.52,2.26,3.66,3.52.1.11.1.31.15.47.05.58-.47.68-.83.88-6.48,3.54-13,7.05-19.44,10.62-3.4,1.89-6.87,3.66-10.23,5.62a3.42,3.42,0,0,1-1,.42,1,1,0,0,1-.59-.08c-2.34-3.05-5.94-4.36-9.21-6.09s-6.29-3.28-9.46-4.88c-5.75-2.88-11.43-5.91-17.17-8.82-2.49-1.26-5-2.56-7.45-3.85a11.58,11.58,0,0,0-10.56-.48c-4.54,2.05-8.79,4.62-13.18,6.95-6.43,3.4-12.83,6.87-19.21,10.34-3.11,1.69-6.41,3.09-9.21,5.29a8.16,8.16,0,0,0-1.76,1.76,1.83,1.83,0,0,1-1.07.93,11.94,11.94,0,0,1-4-1.7c-6.82-3.43-13.6-6.95-20.39-10.44A67.71,67.71,0,0,1,6.61,214.4Z" transform="translate(-4.65 -170.25)"/>
      <path class="cls-2" d="M137.72,229.46a43.13,43.13,0,0,1,5.27-3c1.46-.65,2.75-1.65,4.18-2.37,1.67-.84,3.22-1.86,4.88-2.69s3.43-2.05,5.24-2.84c2.11-.92,3.85-2.45,6.06-3.19A14.74,14.74,0,0,0,165.7,214c1.16-.66,2.34-1.29,3.5-1.93a9.37,9.37,0,0,1,1.61,2.56,17.26,17.26,0,0,1,1.51,4.55,5.52,5.52,0,0,1,.08,1.15q0,5.64,0,11.28,0,29.09,0,58.18a16.59,16.59,0,0,1-3.13,9.66,16.89,16.89,0,0,1-3.47,3.44,11.51,11.51,0,0,1-2.34,1.65c-2,.91-3.8,2.22-5.85,3.09a19.85,19.85,0,0,0-2.61,1.48c-1.58,1-3.34,1.64-4.93,2.63-2.23,1.4-4.65,2.5-7,3.8-1.69.95-3.38,1.95-5.14,2.77s-3.13,1.88-4.8,2.6c-2.32,1-4.41,2.41-6.67,3.53-3,1.49-5.84,3.27-8.82,4.78-1.63.83-3.16,1.8-4.78,2.62-3.19,1.6-6.26,3.39-9.41,5.05-1.88,1-3.69,2.1-5.63,3a23.37,23.37,0,0,1-5.07,1.6,23.25,23.25,0,0,1-3.71.23,2.29,2.29,0,0,1-.45-1.71q0-15.17,0-30.31a3.68,3.68,0,0,1,.19-1.4,1.21,1.21,0,0,1,1.08-.66c2.93-.23,5.32-1.74,7.76-3.07q13.16-7.14,26.35-14.21,4.45-2.39,8.9-4.81c2.75-1.5,5-3.47,5.81-6.62a8.88,8.88,0,0,0,.23-2.18q0-21,0-41.95a9,9,0,0,0-.91-3.88C137.83,230.46,137.49,230,137.72,229.46Z" transform="translate(-4.65 -170.25)"/>
      <path class="cls-3" d="M89.13,308c0,.47,0,.95,0,1.42q0,16.15,0,32.3a18.68,18.68,0,0,1-9.94-2.31c-2.23-1.21-4.52-2.35-6.78-3.5C70.64,335,69,334,67.22,333.25s-3.44-1.94-5.25-2.71c-2.07-.88-3.88-2.2-6-3a21,21,0,0,1-2.09-1.12c-2.45-1.28-4.86-2.64-7.36-3.82-1.95-.91-3.74-2.09-5.74-2.9-.61-.25-1.16-.63-1.74-.93-2.53-1.33-5-2.71-7.59-3.95-1.7-.82-3.3-1.83-5-2.61s-3.18-1.67-4.78-2.47c-3.58-1.78-7.09-3.67-10.65-5.48a13.31,13.31,0,0,1-4.69-4.43,9.91,9.91,0,0,1-1.68-6.12q0-35.62,0-71.26a20.33,20.33,0,0,1,.57-5c.28-1.1,1.1-2,1.38-3.07a2.44,2.44,0,0,1,1.57.57,31.37,31.37,0,0,0,2.91,1.43c1,.45,1.95,1.17,3,1.63,2.58,1.14,5,2.6,7.55,3.8,1.26.59,2.4,1.42,3.69,1.95,2.1.85,3.93,2.18,6,3,1.25.5,2.38,1.26,3.58,1.87s2.57,1.23,3.86,1.85a.67.67,0,0,1,.25.35,2.59,2.59,0,0,1-.22,1.26,14.46,14.46,0,0,0-.67,4.47c0,13.82,0,27.65,0,41.47a7.4,7.4,0,0,0,4.36,7.25q10.5,5.37,21,10.81c5.6,2.9,11.23,5.74,16.8,8.71,2.66,1.41,5.36,2.81,8.52,2.9A.84.84,0,0,1,89.13,308Z" transform="translate(-4.65 -170.25)"/>
      <path class="cls-4" d="M38.82,230.77a.93.93,0,0,0,0-.24.85.85,0,0,0,.58-.49c.9-1.76,2.55-2.74,4.18-3.72,2.32-1.38,4.73-2.62,7.12-3.89,1.43-.77,2.86-1.56,4.3-2.31,1.83-1,3.66-1.88,5.42-3,.82-.51,1.81-.77,2.65-1.3,2.65-1.67,5.51-3,8.26-4.53,1.9-1.05,3.77-2.18,5.78-3.07,1.26-.55,2.39-1.35,3.62-2a21.63,21.63,0,0,1,5-2,10.4,10.4,0,0,1,5,.16,8.45,8.45,0,0,1,2.82.89c.81.56,1.77.87,2.58,1.46a5.6,5.6,0,0,0,1.31.52,17.69,17.69,0,0,1,2.27,1.22c3.16,1.57,6.29,3.21,9.42,4.84,2.32,1.2,4.63,2.43,6.94,3.66,1,.54,2.12.92,3.12,1.52,2.43,1.45,5.06,2.55,7.52,4,1.06.62,2.25,1.06,3.32,1.7,1.33.79,2.83,1.26,4.12,2.12a14.87,14.87,0,0,1,3,2.85c0,.06,0,.17,0,.26.12.53-.36.63-.67.82-3,1.8-6.19,3.37-9.22,5.17-1.25.75-2.5,1.49-3.71,2.29a5.14,5.14,0,0,1-2,.92.7.7,0,0,1-.49-.2c-2.29-2.8-5.78-3.83-8.83-5.48-4.41-2.37-8.9-4.61-13.35-6.89-2.49-1.28-5-2.59-7.49-3.76a7.67,7.67,0,0,0-7.2.32c-5.42,2.92-10.88,5.8-16.27,8.77q-4.19,2.31-8.44,4.51a15,15,0,0,0-4.24,3.5c-.65.19-1.12-.21-1.6-.5-4-2.32-8.06-4.4-12.14-6.54C40.58,231.9,39.49,231.66,38.82,230.77Z" transform="translate(-4.65 -170.25)"/>
      <path class="cls-5" d="M121.58,238.56c2-1.09,3.78-2.51,5.84-3.52,1.16-.57,2.23-1.35,3.37-2,2.1-1.13,4.18-2.28,6.26-3.42.06,0,.09-.13.14-.2h.53c.36.71.76,1.41,1.07,2.14a8,8,0,0,1,.57,3.22c0,14.24,0,28.48,0,42.72a7,7,0,0,1-1.48,4.34,14.19,14.19,0,0,1-5.06,4.26c-1.67.8-3.23,1.78-4.87,2.6-1.23.61-2.43,1.27-3.63,1.92-1.81,1-3.69,1.83-5.41,3-.77.51-1.71.78-2.53,1.23-1.18.63-2.29,1.38-3.47,2-1,.49-1.94.9-2.86,1.46-2.3,1.41-4.76,2.56-7.11,3.9-1.25.71-2.61,1.28-3.84,2.05-1.47.91-3.11,1.49-4.56,2.43a8.38,8.38,0,0,1-3.29,1.1,11.12,11.12,0,0,1-2.08.21l-.08,0a1.93,1.93,0,0,1-.41-1.34c0-4.87,0-9.74,0-14.62a2.49,2.49,0,0,1,.15-.89,1.72,1.72,0,0,1,1.42-.85,13.87,13.87,0,0,0,3.91-1.64c7.93-4.21,15.72-8.64,23.71-12.73a8.08,8.08,0,0,0,4.66-7.38c.16-8.38.06-16.76,0-25.14a11.1,11.1,0,0,0-.8-3.4C121.59,239.56,121.23,239.09,121.58,238.56Z" transform="translate(-4.65 -170.25)"/>
      <path class="cls-6" d="M89.05,290.93V308a14.72,14.72,0,0,1-4-.5,5.34,5.34,0,0,1-1.07-.44c-2.22-1.13-4.49-2.18-6.66-3.42-1-.58-2.14-1.08-3.22-1.61-3.08-1.52-6.1-3.18-9.19-4.69-1.39-.68-2.72-1.46-4.13-2.09a31.24,31.24,0,0,1-2.81-1.6,3.65,3.65,0,0,0-.34-.18c-1.91-.72-3.58-1.89-5.41-2.74s-3.63-2-5.47-2.87c-1.12-.55-2.24-1.09-3.34-1.67a12.32,12.32,0,0,1-3.69-2.33,6.84,6.84,0,0,1-1.94-4.69q0-21.82,0-43.67a10.71,10.71,0,0,1,1-4.26,1.26,1.26,0,0,0,.1-.49c1.71.83,3.43,1.66,5.13,2.5.47.23.9.55,1.38.76,1.86.77,3.51,1.92,5.3,2.81,1.55.78,3,1.79,4.54,2.51.32,1-.11,1.87-.11,2.81q0,14.45,0,28.89a4.3,4.3,0,0,0,2.45,4.23c4.93,2.63,9.94,5.12,14.9,7.71,3.74,1.95,7.5,3.86,11.23,5.82a13.27,13.27,0,0,0,4.22,1.61A1.63,1.63,0,0,1,89.05,290.93Z" transform="translate(-4.65 -170.25)"/>
    </g>
    <text class="cls-7" transform="translate(184.65 133.76) scale(0.36 1)">Jetpack <tspan class="cls-8" x="403.87" y="0">C</tspan><tspan class="cls-9" x="471.82" y="0">ompose</tspan></text>
  </g>
</svg>
